# xmcd
#
# Track frame offsets:
#	150
#	16785
#	36942
#	53650
#	72110
#	94305
#	112562
#	129457
#	149045
#	167387
#	184715
#	201650
#	220202
#
# Disc length: 3183 seconds
# Revision: 1
# Processed by: cddbd v1.5.2PL0 Copyright (c) Steve Scherf et al.
# Submitted via: dBpowerAMP V12.0
#
DISCID=b50c6d0d
DTITLE=Tommy Ridgley - Since The Blues Began
DYEAR=1995
DGENRE=Blues
TTITLE0=Pretty Lady
TTITLE1=How Long (Must I Wait For You)
TTITLE2=Runnin' After You
TTITLE3=About my Past
TTITLE4=Since The Blues Began
TTITLE5=I've Heard That Story Before
TTITLE6=Heartbreak
TTITLE7=Shack up With me
TTITLE8=Let's Try to Talk it Over
TTITLE9=Your Love is All I Need
TTITLE10=In The Same Old Way
TTITLE11=The World is Our Stage
TTITLE12=You Mean Everything to me
EXTD=
EXTT0=
EXTT1=
EXTT2=
EXTT3=
EXTT4=
EXTT5=
EXTT6=
EXTT7=
EXTT8=
EXTT9=
EXTT10=
EXTT11=
EXTT12=
PLAYORDER=
